<svg xmlns="http://www.w3.org/2000/svg" width="390" height="844" viewBox="0 0 390 844" role="img" aria-label="KidQuest mobile task board screenshot">
  <rect width="390" height="844" fill="#EEF9FD"/>
  <rect y="628" width="390" height="216" fill="#FFF4DC"/>
  <text x="20" y="66" fill="#183042" font-family="Inter, Arial, sans-serif" font-size="24" font-weight="800">KidQuest</text>
  <text x="20" y="88" fill="#51697D" font-family="Inter, Arial, sans-serif" font-size="13" font-weight="700">Today's todo</text>
  <circle cx="346" cy="72" r="22" fill="#EDE9FF" stroke="#8E7CF6" stroke-width="3"/>
  <rect x="20" y="116" width="350" height="132" rx="8" fill="#FFFFFF" stroke="#CFE4EE"/>
  <rect x="20" y="116" width="350" height="10" fill="#00A7B7"/>
  <text x="36" y="156" fill="#183042" font-family="Inter, Arial, sans-serif" font-size="20" font-weight="800">Hi, Milo!</text>
  <text x="36" y="180" fill="#51697D" font-family="Inter, Arial, sans-serif" font-size="13" font-weight="700">Finish 5 more quests</text>
  <circle cx="308" cy="172" r="35" fill="#E8EEF1"/>
  <path d="M308 137a35 35 0 0 1 0 70" fill="none" stroke="#FFD166" stroke-width="12" stroke-linecap="round"/>
  <text x="292" y="179" fill="#183042" font-family="Inter, Arial, sans-serif" font-size="16" font-weight="900">0%</text>
  <rect x="20" y="266" width="86" height="32" rx="16" fill="#00A7B7"/>
  <rect x="114" y="266" width="112" height="32" rx="16" fill="#F5FBFE" stroke="#CFE4EE"/>
  <rect x="234" y="266" width="86" height="32" rx="16" fill="#F5FBFE" stroke="#CFE4EE"/>
  <text x="39" y="287" fill="#FFFFFF" font-family="Inter, Arial, sans-serif" font-size="12" font-weight="800">Morning</text>
  <text x="20" y="336" fill="#183042" font-family="Inter, Arial, sans-serif" font-size="18" font-weight="900">Quest list</text>
  <text x="294" y="336" fill="#51697D" font-family="Inter, Arial, sans-serif" font-size="13" font-weight="800">5 left</text>
  <g>
    <rect x="20" y="358" width="350" height="74" rx="8" fill="#FFFFFF" stroke="#CFE4EE"/>
    <circle cx="48" cy="395" r="18" fill="#CFF6FA"/>
    <text x="82" y="390" fill="#183042" font-family="Inter, Arial, sans-serif" font-size="15" font-weight="900">Brush teeth</text>
    <text x="82" y="410" fill="#51697D" font-family="Inter, Arial, sans-serif" font-size="11" font-weight="700">2 minutes - before breakfast</text>
    <circle cx="346" cy="395" r="17" fill="#F5FBFE" stroke="#CFE4EE"/>
  </g>
  <g>
    <rect x="20" y="444" width="350" height="74" rx="8" fill="#FFFFFF" stroke="#CFE4EE"/>
    <circle cx="48" cy="481" r="18" fill="#EDE9FF"/>
    <text x="82" y="476" fill="#183042" font-family="Inter, Arial, sans-serif" font-size="15" font-weight="900">Homework focus</text>
    <text x="82" y="496" fill="#51697D" font-family="Inter, Arial, sans-serif" font-size="11" font-weight="700">Finish one school task</text>
    <circle cx="346" cy="481" r="17" fill="#F5FBFE" stroke="#CFE4EE"/>
  </g>
  <rect x="20" y="546" width="350" height="158" rx="8" fill="#FFFFFF" stroke="#CFE4EE"/>
  <circle cx="54" cy="584" r="22" fill="#FFD166"/>
  <text x="88" y="582" fill="#183042" font-family="Inter, Arial, sans-serif" font-size="17" font-weight="900">Reward stars</text>
  <text x="88" y="604" fill="#51697D" font-family="Inter, Arial, sans-serif" font-size="12" font-weight="700">0 points ready</text>
  <rect x="36" y="632" width="86" height="42" rx="8" fill="#F8FCFD" stroke="#E4F0F5"/>
  <rect x="140" y="632" width="86" height="42" rx="8" fill="#F8FCFD" stroke="#E4F0F5"/>
  <rect x="244" y="632" width="86" height="42" rx="8" fill="#F8FCFD" stroke="#E4F0F5"/>
  <rect x="20" y="758" width="350" height="58" rx="8" fill="#FFFFFF" stroke="#CFE4EE"/>
</svg>
